# xmcd CD database file
#
# Track frame offsets:
#	150
#	13935
#	26207
#	42889
#	54125
#	72487
#	83127
#	97445
#	113642
#	125717
#	142685
#	154700
#
# Disc length: 2308 seconds
#
# Revision: 0
# Processed by: cddbd v1.5.1PL0 Copyright (c) Steve Scherf et al.
# Submitted via: CDex 1.51
#
DISCID=a109020c
DTITLE=Willie Willis and The Wildcatters - Down Home In Dallas
DYEAR=1996
DGENRE=Blues
TTITLE0=Forgive Me Baby
TTITLE1=You Worry Me Baby
TTITLE2=It's All Over
TTITLE3=You Used Me Baby
TTITLE4=I Love This Woman
TTITLE5=I Need Love
TTITLE6=Willie's Mood
TTITLE7=Drivin' Woman Blues
TTITLE8=Happy Holiday
TTITLE9=I Love My Baby
TTITLE10=Woman What's On Your Mind
TTITLE11=I've Been A Fool
EXTD=YEAR: 1996
EXTT0=
EXTT1=
EXTT2=
EXTT3=
EXTT4=
EXTT5=
EXTT6=
EXTT7=
EXTT8=
EXTT9=
EXTT10=
EXTT11=
PLAYORDER=
